<?xml version="1.0" encoding="UTF-8" standalone="no"?><!DOCTYPE svg PUBLIC "-//W3C//DTD SVG 1.1//EN" "http://www.w3.org/Graphics/SVG/1.1/DTD/svg11.dtd"><svg width="100%" height="100%" viewBox="0 0 899 144" version="1.1" xmlns="http://www.w3.org/2000/svg" xmlns:xlink="http://www.w3.org/1999/xlink" xml:space="preserve" xmlns:serif="http://www.serif.com/" style="fill-rule:evenodd;clip-rule:evenodd;stroke-linejoin:round;stroke-miterlimit:2;"><g><path d="M53.6,143.2c-10.667,0 -20.867,-1.633 -30.6,-4.9c-9.733,-3.267 -17.4,-7.5 -23,-12.7l7.4,-15.6c5.333,4.667 12.133,8.533 20.4,11.6c8.267,3.067 16.867,4.6 25.8,4.6c8.133,0 14.733,-0.933 19.8,-2.8c5.067,-1.867 8.8,-4.433 11.2,-7.7c2.4,-3.267 3.6,-6.967 3.6,-11.1c0,-4.8 -1.567,-8.667 -4.7,-11.6c-3.133,-2.933 -7.2,-5.3 -12.2,-7.1c-5,-1.8 -10.5,-3.367 -16.5,-4.7c-6,-1.333 -12.033,-2.9 -18.1,-4.7c-6.067,-1.8 -11.6,-4.1 -16.6,-6.9c-5,-2.8 -9.033,-6.567 -12.1,-11.3c-3.067,-4.733 -4.6,-10.833 -4.6,-18.3c0,-7.2 1.9,-13.833 5.7,-19.9c3.8,-6.067 9.667,-10.933 17.6,-14.6c7.933,-3.667 18.033,-5.5 30.3,-5.5c8.133,0 16.2,1.067 24.2,3.2c8,2.133 14.933,5.2 20.8,9.2l-6.6,16c-6,-4 -12.333,-6.9 -19,-8.7c-6.667,-1.8 -13.133,-2.7 -19.4,-2.7c-7.867,0 -14.333,1 -19.4,3c-5.067,2 -8.767,4.667 -11.1,8c-2.333,3.333 -3.5,7.067 -3.5,11.2c0,4.933 1.567,8.867 4.7,11.8c3.133,2.933 7.2,5.267 12.2,7c5,1.733 10.5,3.3 16.5,4.7c6,1.4 12.033,2.967 18.1,4.7c6.067,1.733 11.6,4 16.6,6.8c5,2.8 9.033,6.533 12.1,11.2c3.067,4.667 4.6,10.667 4.6,18c-0,7.067 -1.933,13.633 -5.8,19.7c-3.867,6.067 -9.833,10.933 -17.9,14.6c-8.067,3.667 -18.233,5.5 -30.5,5.5Z" style="fill:url(#_Linear1);fill-rule:nonzero;"/><path d="M137,141.6l0,-140l54.6,0c12.267,0 22.733,1.933 31.4,5.8c8.667,3.867 15.333,9.467 20,16.8c4.667,7.333 7,16.067 7,26.2c0,10.133 -2.333,18.833 -7,26.1c-4.667,7.267 -11.333,12.867 -20,16.8c-8.667,3.933 -19.133,5.9 -31.4,5.9l-43.6,0l9,-9.4l0,51.8l-20,0Zm20,-49.8l-9,-10l43,0c12.8,0 22.5,-2.733 29.1,-8.2c6.6,-5.467 9.9,-13.2 9.9,-23.2c0,-10 -3.3,-17.733 -9.9,-23.2c-6.6,-5.467 -16.3,-8.2 -29.1,-8.2l-43,0l9,-10l0,82.8Z" style="fill:url(#_Linear2);fill-rule:nonzero;"/><path d="M279.4,61.604l101.6,0l-0,17.442l-101.6,0l-0,-17.442Zm-0,62.342l101.6,0.254l-0,17.4l-101.6,0l-0,-140l101.6,0l-0,17.534l-101.6,-0l-0,104.812Z" style="fill:url(#_Linear3);fill-rule:nonzero;"/><path d="M413.4,141.6l0,-140l54.6,0c12.267,0 22.733,1.933 31.4,5.8c8.667,3.867 15.333,9.467 20,16.8c4.667,7.333 7,16.067 7,26.2c0,10.133 -2.333,18.833 -7,26.1c-4.667,7.267 -11.333,12.833 -20,16.7c-8.667,3.867 -19.133,5.8 -31.4,5.8l-43.6,0l9,-9.2l-0,51.8l-20,0Zm93.6,0l-35.6,-50.8l21.4,0l36,50.8l-21.8,0Zm-73.6,-49.8l-9,-9.8l43,0c12.8,0 22.5,-2.767 29.1,-8.3c6.6,-5.533 9.9,-13.3 9.9,-23.3c-0,-10 -3.3,-17.733 -9.9,-23.2c-6.6,-5.467 -16.3,-8.2 -29.1,-8.2l-43,0l9,-10l-0,82.8Z" style="fill:url(#_Linear4);fill-rule:nonzero;"/><path d="M584.6,141.6l0,-122.6l-48,0l0,-17.4l115.8,0l0,17.4l-48,0l0,122.6l-19.8,0Z" style="fill:url(#_Linear5);fill-rule:nonzero;"/><path d="M735.4,143.2c-10.667,0 -20.567,-1.8 -29.7,-5.4c-9.133,-3.6 -17.033,-8.633 -23.7,-15.1c-6.667,-6.467 -11.867,-14.033 -15.6,-22.7c-3.733,-8.667 -5.6,-18.133 -5.6,-28.4c0,-10.267 1.867,-19.733 5.6,-28.4c3.733,-8.667 8.933,-16.233 15.6,-22.7c6.667,-6.467 14.533,-11.5 23.6,-15.1c9.067,-3.6 19,-5.4 29.8,-5.4c10.667,0 20.5,1.767 29.5,5.3c9,3.533 16.867,8.533 23.6,15c6.733,6.467 11.933,14.033 15.6,22.7c3.667,8.667 5.5,18.2 5.5,28.6c0,10.4 -1.833,19.933 -5.5,28.6c-3.667,8.667 -8.867,16.233 -15.6,22.7c-6.733,6.467 -14.6,11.467 -23.6,15c-9,3.533 -18.833,5.3 -29.5,5.3Zm0,-17.8c7.733,0 14.9,-1.333 21.5,-4c6.6,-2.667 12.333,-6.433 17.2,-11.3c4.867,-4.867 8.667,-10.567 11.4,-17.1c2.733,-6.533 4.1,-13.667 4.1,-21.4c0,-7.733 -1.367,-14.867 -4.1,-21.4c-2.733,-6.533 -6.533,-12.233 -11.4,-17.1c-4.867,-4.867 -10.6,-8.633 -17.2,-11.3c-6.6,-2.667 -13.767,-4 -21.5,-4c-7.867,0 -15.1,1.333 -21.7,4c-6.6,2.667 -12.367,6.433 -17.3,11.3c-4.933,4.867 -8.767,10.567 -11.5,17.1c-2.733,6.533 -4.1,13.667 -4.1,21.4c0,7.733 1.367,14.867 4.1,21.4c2.733,6.533 6.567,12.233 11.5,17.1c4.933,4.867 10.7,8.633 17.3,11.3c6.6,2.667 13.833,4 21.7,4Z" style="fill:url(#_Linear6);fill-rule:nonzero;"/><path d="M855.2,143.2c-8.267,0 -16,-1.733 -23.2,-5.2c-7.2,-3.467 -13.067,-8.467 -17.6,-15l11.6,-13.6c3.867,5.333 8.233,9.433 13.1,12.3c4.867,2.867 10.233,4.3 16.1,4.3c16,-0 24,-9.467 24,-28.4l0,-78.6l-50.6,-0l0,-17.4l70.4,0l0,95c0,15.6 -3.7,27.267 -11.1,35c-7.4,7.733 -18.3,11.6 -32.7,11.6Z" style="fill:url(#_Linear7);fill-rule:nonzero;"/></g><defs><linearGradient id="_Linear1" x1="0" y1="0" x2="1" y2="0" gradientUnits="userSpaceOnUse" gradientTransform="matrix(933.051,158.088,-158.088,933.051,-8.2,-6.8)"><stop offset="0" style="stop-color:#4facfe;stop-opacity:1"/><stop offset="1" style="stop-color:#00f2fe;stop-opacity:1"/></linearGradient><linearGradient id="_Linear2" x1="0" y1="0" x2="1" y2="0" gradientUnits="userSpaceOnUse" gradientTransform="matrix(933.051,158.088,-158.088,933.051,-8.2,-6.8)"><stop offset="0" style="stop-color:#4facfe;stop-opacity:1"/><stop offset="1" style="stop-color:#00f2fe;stop-opacity:1"/></linearGradient><linearGradient id="_Linear3" x1="0" y1="0" x2="1" y2="0" gradientUnits="userSpaceOnUse" gradientTransform="matrix(933.051,158.088,-158.088,933.051,-8.2,-6.8)"><stop offset="0" style="stop-color:#4facfe;stop-opacity:1"/><stop offset="1" style="stop-color:#00f2fe;stop-opacity:1"/></linearGradient><linearGradient id="_Linear4" x1="0" y1="0" x2="1" y2="0" gradientUnits="userSpaceOnUse" gradientTransform="matrix(933.051,158.088,-158.088,933.051,-8.2,-6.8)"><stop offset="0" style="stop-color:#4facfe;stop-opacity:1"/><stop offset="1" style="stop-color:#00f2fe;stop-opacity:1"/></linearGradient><linearGradient id="_Linear5" x1="0" y1="0" x2="1" y2="0" gradientUnits="userSpaceOnUse" gradientTransform="matrix(933.051,158.088,-158.088,933.051,-8.2,-6.8)"><stop offset="0" style="stop-color:#4facfe;stop-opacity:1"/><stop offset="1" style="stop-color:#00f2fe;stop-opacity:1"/></linearGradient><linearGradient id="_Linear6" x1="0" y1="0" x2="1" y2="0" gradientUnits="userSpaceOnUse" gradientTransform="matrix(933.051,158.088,-158.088,933.051,-8.2,-6.8)"><stop offset="0" style="stop-color:#4facfe;stop-opacity:1"/><stop offset="1" style="stop-color:#00f2fe;stop-opacity:1"/></linearGradient><linearGradient id="_Linear7" x1="0" y1="0" x2="1" y2="0" gradientUnits="userSpaceOnUse" gradientTransform="matrix(933.051,158.088,-158.088,933.051,-8.2,-6.8)"><stop offset="0" style="stop-color:#4facfe;stop-opacity:1"/><stop offset="1" style="stop-color:#00f2fe;stop-opacity:1"/></linearGradient></defs></svg>